<svg width="28" height="28" viewBox="0 0 28 28" fill="none" xmlns="http://www.w3.org/2000/svg">
<path opacity="0.4" d="M6.25 9.79883C6.25 10.929 5.33016 11.8488 4.2 11.8488C3.06984 11.8488 2.15 10.929 2.15 9.79883C2.15 8.66867 3.06984 7.74883 4.2 7.74883C5.33016 7.74883 6.25 8.66867 6.25 9.79883ZM25.85 9.79883C25.85 10.929 24.9302 11.8488 23.8 11.8488C22.6698 11.8488 21.75 10.929 21.75 9.79883C21.75 8.66867 22.6698 7.74883 23.8 7.74883C24.9302 7.74883 25.85 8.66867 25.85 9.79883ZM24.34 18.8488C23.9741 17.2312 23.0648 15.8304 21.8108 14.8347C21.9974 14.7788 22.195 14.7488 22.4 14.7488H25.2C26.3302 14.7488 27.25 15.6687 27.25 16.7988V18.1988C27.25 18.559 26.9602 18.8488 26.6 18.8488H24.34ZM18.15 9.09883C18.15 11.3927 16.2939 13.2488 14 13.2488C11.7061 13.2488 9.85 11.3927 9.85 9.09883C9.85 6.80492 11.7061 4.94883 14 4.94883C16.2939 4.94883 18.15 6.80492 18.15 9.09883ZM14 16.8488C15.1375 16.8488 16.2037 16.5856 17.1636 16.1488H17.36C19.7283 16.1488 21.65 18.0705 21.65 20.4388V21.6988C21.65 22.444 21.0452 23.0488 20.3 23.0488H7.7C6.95484 23.0488 6.35 22.444 6.35 21.6988V20.4388C6.35 18.0705 8.27171 16.1488 10.64 16.1488H10.8371C11.7991 16.5852 12.8615 16.8488 14 16.8488ZM5.6 14.7488C5.80496 14.7488 6.00262 14.7788 6.18915 14.8347C4.93487 15.8306 4.02519 17.2315 3.65678 18.8488H1.4C1.03984 18.8488 0.75 18.559 0.75 18.1988V16.7988C0.75 15.6687 1.66984 14.7488 2.8 14.7488H5.6Z" stroke="#595959" stroke-width="1.5"/>
</svg>
