<svg width="28" height="28" viewBox="0 0 28 28" fill="none" xmlns="http://www.w3.org/2000/svg">
<path opacity="0.4" d="M25.0397 24.9872L25.103 25.2193L25.2895 25.3713C25.4179 25.4759 25.5 25.6378 25.5 25.8125V26.6875C25.5 27.0006 25.2506 27.25 24.9375 27.25H7C4.51578 27.25 2.5 25.2342 2.5 22.75V5.25C2.5 2.76578 4.51578 0.75 7 0.75H24.9375C25.2506 0.75 25.5 0.99937 25.5 1.3125V19.6875C25.5 19.8637 25.4171 20.0216 25.2961 20.118L25.1042 20.2707L25.0397 20.5073C24.8961 21.034 24.841 21.9336 24.841 22.7473C24.841 23.5609 24.8961 24.4605 25.0397 24.9872ZM22.6078 25.25H23.4458L23.3532 24.4172C23.2554 23.5371 23.2554 21.9629 23.3532 21.0828L23.4458 20.25H22.6078H7C5.62329 20.25 4.5 21.3733 4.5 22.75C4.5 24.1322 5.61782 25.25 7 25.25H22.6078ZM9.07812 6.25C8.48344 6.25 8 6.73344 8 7.32812V8.42188C8 9.01656 8.48344 9.5 9.07812 9.5H20.6719C21.2666 9.5 21.75 9.01656 21.75 8.42188V7.32812C21.75 6.73344 21.2666 6.25 20.6719 6.25H9.07812ZM9.07812 9.75C8.48344 9.75 8 10.2334 8 10.8281V11.9219C8 12.5166 8.48344 13 9.07812 13H20.6719C21.2666 13 21.75 12.5166 21.75 11.9219V10.8281C21.75 10.2334 21.2666 9.75 20.6719 9.75H9.07812Z" stroke="#595959" stroke-width="1.5"/>
</svg>
