<svg width="21" height="5" viewBox="0 0 21 5" fill="none" xmlns="http://www.w3.org/2000/svg">
<path d="M12.3621 2.14286C12.3621 3.33333 11.3865 4.28571 10.167 4.28571C8.94748 4.28571 7.97187 3.33333 7.97187 2.14286C7.97187 0.952381 8.94748 0 10.167 0C11.3865 0 12.3621 0.952381 12.3621 2.14286ZM17.9719 0C16.7524 0 15.7767 0.952381 15.7767 2.14286C15.7767 3.33333 16.7524 4.28571 17.9719 4.28571C19.1914 4.28571 20.167 3.33333 20.167 2.14286C20.167 0.952381 19.1914 0 17.9719 0ZM2.36211 0C1.1426 0 0.166992 0.952381 0.166992 2.14286C0.166992 3.33333 1.1426 4.28571 2.36211 4.28571C3.58163 4.28571 4.55724 3.33333 4.55724 2.14286C4.55724 0.952381 3.58163 0 2.36211 0Z" fill="#8C8C8C"/>
</svg>
