<svg width="16" height="15" viewBox="0 0 16 15" fill="none" xmlns="http://www.w3.org/2000/svg">
<path d="M9.67244 7.08511L14.9964 2.05343C15.4804 1.596 15.4804 0.843464 14.9964 0.386038C14.5124 -0.0713877 13.7161 -0.0713877 13.2321 0.386038L7.9082 5.41772L2.58426 0.386038C2.10027 -0.0713877 1.30402 -0.0713877 0.820024 0.386038C0.578027 0.614751 0.453125 0.917242 0.453125 1.21973C0.453125 1.52222 0.578027 1.82472 0.820024 2.05343L6.14396 7.08511L0.820024 12.1168C0.578027 12.3455 0.453125 12.648 0.453125 12.9505C0.453125 13.253 0.578027 13.5555 0.820024 13.7842C1.30402 14.2416 2.10027 14.2416 2.58426 13.7842L7.9082 8.7525L13.2321 13.7842C13.7161 14.2416 14.5124 14.2416 14.9964 13.7842C15.4804 13.3268 15.4804 12.5742 14.9964 12.1168L9.67244 7.08511Z" fill="#9A99A2"/>
</svg>
