<svg width="12" height="12" viewBox="0 0 12 12" fill="none" xmlns="http://www.w3.org/2000/svg">
<path d="M1.5125 0.875H3.94063C4.18125 0.875 4.375 0.68125 4.375 0.440625V0.434375C4.375 0.19375 4.18125 0 3.94063 0H0.434375C0.19375 0 0 0.19375 0 0.434375V3.94063C0 4.18125 0.19375 4.375 0.434375 4.375H0.440625C0.68125 4.375 0.875 4.18125 0.875 3.94063V1.5125L4.53438 5.14687C4.61563 5.22813 4.725 5.27187 4.84062 5.27187C4.95625 5.27187 5.06562 5.22813 5.14687 5.14375C5.31562 4.975 5.31562 4.7 5.14687 4.53125L1.5125 0.875ZM11.5656 0H8.05937C7.81875 0 7.625 0.19375 7.625 0.434375V0.440625C7.625 0.68125 7.81875 0.875 8.05937 0.875H10.4875L6.85312 4.53438C6.68437 4.70312 6.68437 4.97813 6.85312 5.14687C6.93437 5.22813 7.04375 5.275 7.15938 5.275C7.275 5.275 7.38437 5.23125 7.46562 5.15L11.125 1.5125V3.94063C11.125 4.18125 11.3187 4.375 11.5594 4.375H11.5656C11.8063 4.375 12 4.18125 12 3.94063V0.434375C12 0.19375 11.8063 0 11.5656 0ZM4.84062 6.725C4.725 6.725 4.61563 6.76875 4.53438 6.85L0.875 10.4875V8.05937C0.875 7.81875 0.68125 7.625 0.440625 7.625H0.434375C0.19375 7.625 0 7.81875 0 8.05937V11.5656C0 11.8063 0.19375 12 0.434375 12H3.94063C4.18125 12 4.375 11.8063 4.375 11.5656V11.5594C4.375 11.3187 4.18125 11.125 3.94063 11.125H1.5125L5.14687 7.46562C5.31562 7.29688 5.31562 7.02187 5.14687 6.85312C5.06562 6.77187 4.95625 6.725 4.84062 6.725ZM11.5656 7.625H11.5594C11.3187 7.625 11.125 7.81875 11.125 8.05937V10.4875L7.46562 6.85312C7.38437 6.77187 7.275 6.72812 7.15938 6.72812C7.04375 6.72812 6.93437 6.77187 6.85312 6.85625C6.68437 7.025 6.68437 7.3 6.85312 7.46875L10.4875 11.125H8.05937C7.81875 11.125 7.625 11.3187 7.625 11.5594V11.5656C7.625 11.8063 7.81875 12 8.05937 12H11.5656C11.8063 12 12 11.8063 12 11.5656V8.05937C12 7.81875 11.8063 7.625 11.5656 7.625Z" fill="#FFFFFF"/>
</svg>
