<svg width="23" height="20" viewBox="0 0 23 20" fill="none" xmlns="http://www.w3.org/2000/svg">
<path d="M19.0731 1.47368H14.3672V1.43158C14.3672 0.631579 13.6613 0 12.7672 0H9.56719C8.67307 0 7.96719 0.631579 7.96719 1.43158V1.47368H3.2613C2.76719 1.47368 2.36719 1.83158 2.36719 2.27368V3.07368C2.36719 3.51579 2.76719 3.87368 3.2613 3.87368H19.0731C19.5672 3.87368 19.9672 3.51579 19.9672 3.07368V2.27368C19.9672 1.83158 19.5672 1.47368 19.0731 1.47368Z" fill="#8C8C8C"/>
<path d="M17.897 4.96842H4.43821C4.17939 4.96842 3.99115 5.15789 4.01468 5.38947L4.6735 17.5789C4.74409 18.9263 5.99115 20 7.49703 20H14.8147C16.3206 20 17.5676 18.9474 17.6382 17.5789L18.297 5.38947C18.3441 5.17895 18.1323 4.96842 17.897 4.96842ZM9.7088 16.7368C9.7088 17.1158 9.37939 17.4105 8.95586 17.4105C8.53233 17.4105 8.20292 17.1158 8.20292 16.7368V8.25263C8.20292 7.87368 8.53233 7.57895 8.95586 7.57895C9.37939 7.57895 9.7088 7.87368 9.7088 8.25263V16.7368ZM14.1323 16.7368C14.1323 17.1158 13.8029 17.4105 13.3794 17.4105C12.9559 17.4105 12.6264 17.1158 12.6264 16.7368V8.25263C12.6264 7.87368 12.9559 7.57895 13.3794 7.57895C13.8029 7.57895 14.1323 7.87368 14.1323 8.25263V16.7368Z" fill="#8C8C8C"/>
</svg>
