<svg width="15" height="16" viewBox="0 0 15 16" fill="none" xmlns="http://www.w3.org/2000/svg">
<path d="M13.8965 0.968414H0.437722C0.178898 0.968414 -0.00933669 1.15789 0.0141927 1.38947L0.673016 13.5789C0.743604 14.9263 1.99066 16 3.49655 16H10.8142C12.3201 16 13.5671 14.9474 13.6377 13.5789L14.2965 1.38947C14.3436 1.17894 14.1318 0.968414 13.8965 0.968414ZM5.70831 12.7368C5.70831 13.1158 5.3789 13.4105 4.95537 13.4105C4.53184 13.4105 4.20243 13.1158 4.20243 12.7368V4.25263C4.20243 3.87368 4.53184 3.57894 4.95537 3.57894C5.3789 3.57894 5.70831 3.87368 5.70831 4.25263V12.7368ZM10.1318 12.7368C10.1318 13.1158 9.80243 13.4105 9.3789 13.4105C8.95537 13.4105 8.62596 13.1158 8.62596 12.7368V4.25263C8.62596 3.87368 8.95537 3.57894 9.3789 3.57894C9.80243 3.57894 10.1318 3.87368 10.1318 4.25263V12.7368Z" fill="#8C8C8C"/>
</svg>
