<svg width="24" height="24" viewBox="0 0 24 24" fill="none" xmlns="http://www.w3.org/2000/svg">
<path d="M11.995 21.375C13.4528 21.375 14.2497 20.3437 14.2497 18.8906H9.73559C9.73559 20.3437 10.5325 21.375 11.995 21.375V21.375ZM19.3122 16.5093C18.5903 15.5578 17.17 15 17.17 10.739C17.17 6.36558 15.2387 4.60777 13.4387 4.18589C13.27 4.14371 13.1481 4.08746 13.1481 3.90933V3.77339C13.1481 3.14527 12.6325 2.61558 12.0043 2.62027C11.3762 2.61089 10.8606 3.14527 10.8606 3.77339V3.90933C10.8606 4.08277 10.7387 4.14371 10.57 4.18589C8.76528 4.61246 6.83872 6.36558 6.83872 10.739C6.83872 15 5.4184 15.5531 4.69653 16.5093C4.23247 17.1234 4.67309 18 5.44184 18H18.5715C19.3356 18 19.7762 17.1187 19.3122 16.5093V16.5093Z" fill="#9A99A2"/>
</svg>
