<svg width="28" height="28" viewBox="0 0 28 28" fill="none" xmlns="http://www.w3.org/2000/svg">
<path opacity="1" d="M27.2497 16.3402L27.2497 16.3399C27.2503 16.336 27.25 16.3338 27.249 16.3306C27.2475 16.3263 27.2437 16.318 27.2348 16.3083C27.2154 16.287 27.1893 16.2764 27.1657 16.2764H16.7629L23.6165 23.1299C23.633 23.1465 23.6568 23.1568 23.6812 23.1577L27.2497 16.3402ZM27.2497 16.3402C26.8724 19.0094 25.5863 21.3854 23.714 23.1493L27.2497 16.3402ZM10.7795 15.837V15.5264V3.31299C10.7795 3.28932 10.7688 3.26317 10.7475 3.24376C10.7378 3.23491 10.7296 3.23107 10.7253 3.22967C10.7222 3.22865 10.7203 3.22842 10.7166 3.22895L10.7162 3.229C4.95425 4.04322 0.551952 9.07723 0.756885 15.1082L10.7795 15.837ZM10.7795 15.837L10.9991 16.0567M10.7795 15.837L10.9991 16.0567M10.9991 16.0567L19.0213 24.0794L19.0213 24.0794C19.0389 24.0969 19.0488 24.1225 19.0472 24.1491C19.0465 24.1612 19.0436 24.1685 19.042 24.1714C19.0411 24.1731 19.0404 24.1743 19.0371 24.1766L19.0369 24.1767C17.1857 25.4898 14.9359 26.2743 12.4996 26.3048H12.4995M10.9991 16.0567L12.4995 26.3048M12.4995 26.3048C6.30803 26.3825 0.967409 21.2949 0.756886 15.1082L12.4995 26.3048ZM25.6027 12.2427L25.6027 12.2428C25.6029 12.2462 25.6036 12.2577 25.5859 12.2759C25.5666 12.2957 25.541 12.3058 25.5176 12.3058H14.7501V1.53881C14.7501 1.51534 14.7603 1.48954 14.7802 1.47008C14.7985 1.45221 14.81 1.45299 14.8131 1.4532L14.8132 1.45321C20.5883 1.85156 25.2043 6.46761 25.6027 12.2427Z" stroke="#FFFFFF" stroke-width="1.5"/>
</svg>
