<svg width="28" height="20" viewBox="0 0 28 20" fill="none" xmlns="http://www.w3.org/2000/svg">
<path opacity="1" d="M6.25 5.79883C6.25 6.92899 5.33016 7.84883 4.2 7.84883C3.06984 7.84883 2.15 6.92899 2.15 5.79883C2.15 4.66867 3.06984 3.74883 4.2 3.74883C5.33016 3.74883 6.25 4.66867 6.25 5.79883ZM25.85 5.79883C25.85 6.92899 24.9302 7.84883 23.8 7.84883C22.6698 7.84883 21.75 6.92899 21.75 5.79883C21.75 4.66867 22.6698 3.74883 23.8 3.74883C24.9302 3.74883 25.85 4.66867 25.85 5.79883ZM24.34 14.8488C23.9741 13.2312 23.0648 11.8304 21.8108 10.8347C21.9974 10.7788 22.195 10.7488 22.4 10.7488H25.2C26.3302 10.7488 27.25 11.6687 27.25 12.7988V14.1988C27.25 14.559 26.9602 14.8488 26.6 14.8488H24.34ZM18.15 5.09883C18.15 7.39274 16.2939 9.24883 14 9.24883C11.7061 9.24883 9.85 7.39274 9.85 5.09883C9.85 2.80492 11.7061 0.94883 14 0.94883C16.2939 0.94883 18.15 2.80492 18.15 5.09883ZM14 12.8488C15.1375 12.8488 16.2037 12.5856 17.1636 12.1488H17.36C19.7283 12.1488 21.65 14.0705 21.65 16.4388V17.6988C21.65 18.444 21.0452 19.0488 20.3 19.0488H7.7C6.95484 19.0488 6.35 18.444 6.35 17.6988V16.4388C6.35 14.0705 8.27171 12.1488 10.64 12.1488H10.8371C11.7991 12.5852 12.8615 12.8488 14 12.8488ZM5.6 10.7488C5.80496 10.7488 6.00262 10.7788 6.18915 10.8347C4.93487 11.8306 4.02519 13.2315 3.65678 14.8488H1.4C1.03984 14.8488 0.75 14.559 0.75 14.1988V12.7988C0.75 11.6687 1.66984 10.7488 2.8 10.7488H5.6Z" stroke="#FFFFFF" stroke-width="1.5"/>
</svg>
