<svg width="26" height="24" viewBox="0 0 26 24" fill="none" xmlns="http://www.w3.org/2000/svg">
<path d="M24.3203 8.5H16.2758L13.8313 1.20469C13.7109 0.849219 13.3773 0.625 13 0.625C12.6227 0.625 12.2891 0.849219 12.1687 1.20469L9.72422 8.5H1.625C1.14375 8.5 0.75 8.89375 0.75 9.375C0.75 9.42422 0.755469 9.47891 0.766406 9.52266C0.777344 9.71406 0.864844 9.92734 1.13281 10.1406L7.74453 14.8L5.20703 22.1773C5.08125 22.5328 5.20703 22.932 5.50781 23.1617C5.66641 23.2766 5.81406 23.375 6 23.375C6.18047 23.375 6.39375 23.282 6.54688 23.1781L13 18.5789L19.4531 23.1781C19.6063 23.2875 19.8195 23.375 20 23.375C20.1859 23.375 20.3336 23.282 20.4867 23.1617C20.793 22.932 20.9133 22.5383 20.7875 22.1773L18.25 14.8L24.807 10.0969L24.9656 9.96016C25.1078 9.80703 25.25 9.59922 25.25 9.375C25.25 8.89375 24.8016 8.5 24.3203 8.5ZM21.7281 10.425L17.3641 13.5586C16.8172 13.9523 16.5875 14.6633 16.8062 15.2977L18.4523 20.0938C18.5234 20.2961 18.2938 20.4656 18.1187 20.3453L13.8859 17.3266L13.8805 17.3211C13.3336 16.9383 13 16.3203 13 15.6531V4.19609C13 4.07578 13.1695 4.04844 13.2078 4.16328L14.8266 8.98672C15.0344 9.61016 15.6195 10.0312 16.2758 10.0312H21.5969C21.8102 10.0312 21.8977 10.3047 21.7281 10.425Z" fill="#FFFFFF"/>
</svg>
