<svg width="336" height="268" viewBox="0 0 336 268" fill="none" xmlns="http://www.w3.org/2000/svg">
<g clip-path="url(#clip0)">
<path opacity="0.1" d="M10.1791 268C15.8009 268 20.3583 267.229 20.3583 266.278C20.3583 265.327 15.8009 264.556 10.1791 264.556C4.55735 264.556 0 265.327 0 266.278C0 267.229 4.55735 268 10.1791 268Z" fill="#536DFE"/>
<path d="M335.846 230.69C335.846 230.69 327.736 230.2 328.702 235.884C328.652 236.173 328.696 236.47 328.825 236.733C328.955 236.996 329.164 237.211 329.423 237.347C329.423 237.347 329.423 236.925 330.253 237.068C330.545 237.116 330.84 237.13 331.135 237.109C331.533 237.083 331.911 236.927 332.213 236.667C332.213 236.667 334.492 235.724 335.38 231.997C335.38 231.997 336.034 231.183 336.01 230.976L334.649 231.561C334.649 231.561 335.115 232.548 334.748 233.372C334.748 233.372 334.703 231.599 334.441 231.639C334.387 231.639 333.727 231.98 333.727 231.98C333.727 231.98 334.533 233.682 333.928 234.948C333.928 234.948 334.156 232.831 333.479 232.102L332.512 232.664C332.512 232.664 333.455 234.444 332.815 235.894C332.815 235.894 332.982 233.668 332.312 232.803L331.437 233.484C331.437 233.484 332.322 235.234 331.778 236.438C331.778 236.438 331.706 233.848 331.243 233.654C330.912 233.934 330.616 234.253 330.362 234.604C330.362 234.604 330.968 235.873 330.594 236.547C330.594 236.547 330.362 234.822 330.172 234.815C330.172 234.815 329.413 235.955 329.335 236.738C329.37 236.012 329.595 235.307 329.988 234.696C329.549 234.779 329.145 234.99 328.824 235.302C328.824 235.302 328.944 234.492 330.185 234.42C330.185 234.42 330.815 233.556 330.985 233.501C330.985 233.501 329.757 233.399 329.012 233.729C329.012 233.729 329.668 232.967 331.209 233.314L332.07 232.609C332.07 232.609 330.454 232.388 329.77 232.633C329.77 232.633 330.56 231.953 332.301 232.449L333.24 231.888C332.519 231.73 331.78 231.667 331.043 231.701C331.043 231.701 331.907 231.231 333.516 231.738L334.196 231.435C334.196 231.435 333.176 231.238 332.893 231.207C332.611 231.177 332.58 231.095 332.58 231.095C333.221 230.988 333.878 231.061 334.479 231.306C334.479 231.306 335.87 230.778 335.846 230.69Z" fill="#536DFE"/>
<path opacity="0.1" d="M330.26 238.811C333.43 238.811 336 238.376 336 237.841C336 237.305 333.43 236.871 330.26 236.871C327.091 236.871 324.521 237.305 324.521 237.841C324.521 238.376 327.091 238.811 330.26 238.811Z" fill="#536DFE"/>
<path d="M319.17 246.166C319.17 246.166 309.378 245.577 310.549 252.446C310.489 252.794 310.542 253.153 310.698 253.47C310.854 253.787 311.107 254.047 311.42 254.212C311.42 254.212 311.42 253.702 312.44 253.872C312.792 253.931 313.15 253.948 313.505 253.923C313.985 253.889 314.441 253.701 314.805 253.385C314.805 253.385 317.557 252.248 318.625 247.749C318.625 247.749 319.418 246.765 319.388 246.513L317.734 247.221C317.734 247.221 318.299 248.412 317.857 249.403C317.857 249.403 317.802 247.262 317.486 247.313C317.421 247.313 316.625 247.725 316.625 247.725C316.625 247.725 317.598 249.804 316.863 251.312C316.863 251.312 317.142 248.753 316.322 247.878L315.159 248.559C315.159 248.559 316.295 250.706 315.526 252.456C315.526 252.456 315.723 249.77 314.914 248.712L313.862 249.532C313.862 249.532 314.927 251.649 314.278 253.099C314.278 253.099 314.192 249.975 313.631 249.74C313.631 249.74 312.709 250.55 312.57 250.887C312.57 250.887 313.301 252.422 312.849 253.232C312.849 253.232 312.57 251.149 312.342 251.139C312.342 251.139 311.423 252.517 311.321 253.463C311.367 252.589 311.64 251.742 312.114 251.006C311.583 251.106 311.094 251.359 310.705 251.734C310.705 251.734 310.848 250.761 312.338 250.676C312.338 250.676 313.097 249.627 313.301 249.563C313.301 249.563 311.818 249.44 310.92 249.838C310.92 249.838 311.712 248.919 313.573 249.338L314.614 248.487C314.614 248.487 312.662 248.218 311.835 248.514C311.835 248.514 312.787 247.701 314.897 248.293L316.03 247.612C316.03 247.612 314.366 247.255 313.376 247.384C313.376 247.384 314.42 246.819 316.363 247.432L317.173 247.068C317.173 247.068 315.951 246.826 315.598 246.789C315.244 246.751 315.22 246.653 315.22 246.653C315.992 246.524 316.785 246.612 317.51 246.908C317.51 246.908 319.197 246.275 319.17 246.166Z" fill="#536DFE"/>
<path opacity="0.1" d="M312.424 255.972C316.251 255.972 319.354 255.447 319.354 254.801C319.354 254.154 316.251 253.63 312.424 253.63C308.596 253.63 305.494 254.154 305.494 254.801C305.494 255.447 308.596 255.972 312.424 255.972Z" fill="#536DFE"/>
<path opacity="0.1" d="M274.037 252.15C291.385 252.15 305.449 249.954 305.449 247.245C305.449 244.536 291.385 242.34 274.037 242.34C256.689 242.34 242.625 244.536 242.625 247.245C242.625 249.954 256.689 252.15 274.037 252.15Z" fill="#536DFE"/>
<path opacity="0.1" d="M174.638 264.913C194.132 264.913 209.935 263.327 209.935 261.37C209.935 259.413 194.132 257.827 174.638 257.827C155.144 257.827 139.341 259.413 139.341 261.37C139.341 263.327 155.144 264.913 174.638 264.913Z" fill="#536DFE"/>
<path opacity="0.1" d="M67.6989 261.394C82.4955 261.394 94.4906 260.653 94.4906 259.74C94.4906 258.826 82.4955 258.085 67.6989 258.085C52.9023 258.085 40.9072 258.826 40.9072 259.74C40.9072 260.653 52.9023 261.394 67.6989 261.394Z" fill="#536DFE"/>
<path opacity="0.1" d="M115.267 11.6573C125.205 2.80794 140.807 0.993814 155.004 1.69836C199.602 3.91411 239.86 25.4555 274.684 49.8219C287.292 58.6407 299.703 68.147 307.885 80.2944C324.555 105.018 319.602 139.272 296.44 159.643C288.558 166.572 279.005 171.896 269.196 176.596C251.757 184.972 232.94 191.694 213.15 193.614C199.034 194.976 184.745 193.869 170.715 191.963C131.509 186.64 93.0277 174.877 60.7756 154.762C46.6296 145.913 33.2933 134.953 27.4621 120.675C21.6309 106.397 25.363 88.3031 39.8084 79.852C45.7825 76.3565 52.927 74.7772 59.9183 73.2966C70.2131 71.1149 80.6712 68.9638 89.9624 64.5255C99.5564 59.9443 110.916 51.0847 109.014 40.9454C106.98 30.064 105.343 20.5067 115.267 11.6573Z" fill="#536DFE"/>
<path opacity="0.9" d="M197.615 133.347V68.3581H206.461V48.9575H143.079V68.3581H151.925V133.347C139.709 137.988 129.193 146.236 121.771 156.995C114.35 167.755 110.374 180.518 110.371 193.59C110.371 229.175 139.207 258.021 174.777 258.021C210.346 258.021 239.179 229.175 239.179 193.59C239.176 180.516 235.198 167.752 227.775 156.993C220.351 146.233 209.833 137.986 197.615 133.347Z" fill="#96B7FE"/>
<path opacity="0.1" d="M197.616 68.1572H151.912V69.032H197.616V68.1572Z" fill="black"/>
<path d="M138.741 191.861C138.741 191.861 177.525 191.181 196.917 181.47C216.309 171.76 227.39 180.429 226.349 186.32C225.308 192.212 219.773 203.638 197.611 205.04C175.45 206.442 138.741 191.861 138.741 191.861Z" fill="#536DFE"/>
<path opacity="0.1" d="M138.741 191.861C138.741 191.861 177.525 191.181 196.917 181.47C216.309 171.76 227.39 180.429 226.349 186.32C225.308 192.212 219.773 203.638 197.611 205.04C175.45 206.442 138.741 191.861 138.741 191.861Z" fill="black"/>
<path d="M122.132 185.633C122.132 185.633 117.988 243.137 172.337 244.175C226.686 245.213 226.353 186.314 226.353 186.314C226.353 186.314 206.28 208.134 158.834 190.122C158.834 190.136 134.25 183.553 122.132 185.633Z" fill="#536DFE"/>
<path opacity="0.1" d="M226.176 186.521C225.091 199.768 218.052 241.234 172.358 240.359C127.565 239.512 122.493 200.336 122.095 186.555C121.847 193.951 122.068 243.208 172.348 244.171C226.71 245.192 226.363 186.31 226.363 186.31C226.363 186.31 226.295 186.395 226.176 186.521Z" fill="black"/>
<path opacity="0.3" d="M172.668 167.876C176.563 167.876 179.72 164.717 179.72 160.82C179.72 156.924 176.563 153.765 172.668 153.765C168.773 153.765 165.615 156.924 165.615 160.82C165.615 164.717 168.773 167.876 172.668 167.876Z" fill="#536DFE"/>
<path opacity="0.3" d="M176.696 136.961C179.107 136.961 181.061 135.006 181.061 132.594C181.061 130.183 179.107 128.228 176.696 128.228C174.286 128.228 172.332 130.183 172.332 132.594C172.332 135.006 174.286 136.961 176.696 136.961Z" fill="#536DFE"/>
<path opacity="0.3" d="M166.956 111.758C169.366 111.758 171.321 109.802 171.321 107.391C171.321 104.979 169.366 103.024 166.956 103.024C164.545 103.024 162.591 104.979 162.591 107.391C162.591 109.802 164.545 111.758 166.956 111.758Z" fill="#536DFE"/>
<path opacity="0.2" d="M129.556 166.263C129.182 169.238 129.257 172.961 131.914 174.35C129.685 173.186 138.82 159.987 137.524 157.291C134.751 151.539 129.896 163.499 129.556 166.263Z" fill="white"/>
<path opacity="0.3" d="M163.428 35.9898C167.323 35.9898 170.48 32.8308 170.48 28.9341C170.48 25.0374 167.323 21.8784 163.428 21.8784C159.533 21.8784 156.375 25.0374 156.375 28.9341C156.375 32.8308 159.533 35.9898 163.428 35.9898Z" fill="#536DFE"/>
<path opacity="0.3" d="M184.585 22.0827C187.481 22.0827 189.828 19.7344 189.828 16.8377C189.828 13.941 187.481 11.5928 184.585 11.5928C181.69 11.5928 179.343 13.941 179.343 16.8377C179.343 19.7344 181.69 22.0827 184.585 22.0827Z" fill="#536DFE"/>
<path opacity="0.3" d="M169.473 5.45258C170.978 5.45258 172.198 4.23198 172.198 2.72629C172.198 1.2206 170.978 0 169.473 0C167.968 0 166.748 1.2206 166.748 2.72629C166.748 4.23198 167.968 5.45258 169.473 5.45258Z" fill="#536DFE"/>
<path opacity="0.9" d="M96.5552 89.5762H39.5596V106.489H48.2452V238.433C48.2108 241.058 48.6979 243.664 49.6783 246.099C50.6587 248.535 52.1129 250.751 53.9563 252.62C55.7998 254.488 57.9959 255.972 60.4171 256.985C62.8383 257.997 65.4365 258.519 68.0608 258.519C70.6851 258.519 73.2833 257.997 75.7045 256.985C78.1257 255.972 80.3218 254.488 82.1653 252.62C84.0087 250.751 85.4629 248.535 86.4433 246.099C87.4237 243.664 87.9108 241.058 87.8764 238.433V106.489H96.5552V89.5762Z" fill="#96B7FE"/>
<path d="M61.4492 186.455C61.4492 186.455 75.5544 183.781 79.4804 185.683C79.4804 185.683 73.7683 190.138 68.5086 189.96C63.2489 189.781 61.4492 186.455 61.4492 186.455Z" fill="#536DFE"/>
<path opacity="0.1" d="M61.4492 186.455C61.4492 186.455 75.5544 183.781 79.4804 185.683C79.4804 185.683 73.7683 190.138 68.5086 189.96C63.2489 189.781 61.4492 186.455 61.4492 186.455Z" fill="black"/>
<path d="M79.4743 185.69V236.487C79.4743 237.33 79.1615 238.164 78.5539 238.943C77.9462 239.721 77.0556 240.429 75.9328 241.025C74.8101 241.62 73.4772 242.093 72.0102 242.415C70.5432 242.738 68.971 242.904 67.3831 242.904C64.1764 242.904 61.1009 242.228 58.8334 241.025C56.5659 239.821 55.292 238.189 55.292 236.487V185.69C55.292 185.69 61.113 184.858 66.5972 186.641C72.0815 188.425 79.4743 185.69 79.4743 185.69Z" fill="#536DFE"/>
<path opacity="0.1" d="M67.3831 239.814C65.795 239.814 64.2225 239.648 62.7553 239.326C61.2881 239.003 59.955 238.53 58.8322 237.934C57.7094 237.338 56.8188 236.631 56.2114 235.852C55.604 235.073 55.2915 234.239 55.292 233.396V236.604C55.292 238.306 56.5659 239.938 58.8334 241.141C61.1009 242.345 64.1764 243.021 67.3831 243.021C70.5899 243.021 73.6653 242.345 75.9328 241.141C78.2004 239.938 79.4743 238.306 79.4743 236.604V233.396C79.4747 234.239 79.1623 235.073 78.5549 235.852C77.9474 236.631 77.0569 237.338 75.9341 237.934C74.8112 238.53 73.4782 239.003 72.011 239.326C70.5438 239.648 68.9712 239.814 67.3831 239.814Z" fill="black"/>
<path opacity="0.1" d="M87.8701 106.383H48.2388V107.163H87.8701V106.383Z" fill="black"/>
<path opacity="0.3" d="M67.3855 125.535C68.7459 125.535 69.8486 124.432 69.8486 123.071C69.8486 121.71 68.7459 120.607 67.3855 120.607C66.0251 120.607 64.9224 121.71 64.9224 123.071C64.9224 124.432 66.0251 125.535 67.3855 125.535Z" fill="#536DFE"/>
<path opacity="0.3" d="M75.4453 115.903C76.3115 115.903 77.0137 115.2 77.0137 114.334C77.0137 113.467 76.3115 112.765 75.4453 112.765C74.5791 112.765 73.877 113.467 73.877 114.334C73.877 115.2 74.5791 115.903 75.4453 115.903Z" fill="#536DFE"/>
<path opacity="0.3" d="M64.4736 112.769C65.3398 112.769 66.042 112.066 66.042 111.199C66.042 110.333 65.3398 109.63 64.4736 109.63C63.6075 109.63 62.9053 110.333 62.9053 111.199C62.9053 112.066 63.6075 112.769 64.4736 112.769Z" fill="#536DFE"/>
<path opacity="0.2" d="M51.3079 154.503C50.9336 157.478 51.0085 161.202 53.6655 162.59C51.4338 161.426 60.5719 148.23 59.2756 145.531C56.4961 139.786 51.6481 151.743 51.3079 154.503Z" fill="white"/>
<path opacity="0.3" d="M72.4956 78.9944C75.8006 78.9944 78.4799 76.314 78.4799 73.0075C78.4799 69.701 75.8006 67.0205 72.4956 67.0205C69.1905 67.0205 66.5112 69.701 66.5112 73.0075C66.5112 76.314 69.1905 78.9944 72.4956 78.9944Z" fill="#536DFE"/>
<path opacity="0.3" d="M54.5423 67.1939C56.9999 67.1939 58.9922 65.2007 58.9922 62.742C58.9922 60.2832 56.9999 58.29 54.5423 58.29C52.0846 58.29 50.0923 60.2832 50.0923 62.742C50.0923 65.2007 52.0846 67.1939 54.5423 67.1939Z" fill="#536DFE"/>
<path opacity="0.3" d="M67.3652 53.0825C68.6429 53.0825 69.6786 52.0463 69.6786 50.7681C69.6786 49.4898 68.6429 48.4536 67.3652 48.4536C66.0875 48.4536 65.0518 49.4898 65.0518 50.7681C65.0518 52.0463 66.0875 53.0825 67.3652 53.0825Z" fill="#536DFE"/>
<path d="M304.782 153.612C304.782 153.612 299.559 127.629 301.557 124.395C301.557 124.395 301.628 121.39 301.509 117.561C301.509 117.414 301.509 117.268 301.509 117.118C301.859 117.357 302.225 117.571 302.604 117.758C304.445 118.708 306.56 118.981 308.582 118.531L306.993 116.768C306.615 116.346 306.217 115.893 306.136 115.335C306.114 114.798 306.231 114.264 306.476 113.786C307.976 109.991 308.068 105.216 305.163 102.319C302.72 99.8823 302.121 96.7374 299.481 94.5148C297.542 92.8845 296.477 90.4952 295.47 88.1909C294.62 86.2373 293.769 84.27 293.276 82.2006C292.895 80.5839 292.745 78.9127 292.221 77.3334C291.697 75.7542 290.724 74.2191 289.197 73.5146C288.63 73.3166 288.081 73.073 287.553 72.7862C286.9 72.3471 286.509 71.6324 286.039 71.0095C283.658 67.8408 275.629 69.7059 271.832 70.9925C270.801 71.316 269.846 71.8451 269.025 72.548L269.059 72.4901L269.155 72.3505C268.74 72.6865 268.382 73.0864 268.093 73.535C267.539 74.4131 267.307 75.4444 266.848 76.3702C266.29 77.4934 263.194 80.6281 264.524 81.8909C264.616 81.9754 264.72 82.0444 264.834 82.0951C265.331 82.2979 265.876 82.3523 266.402 82.2516C266.382 82.2959 266.362 82.3401 266.345 82.3844C265.893 83.4989 265.661 84.6907 265.664 85.8935C265.687 88.4114 266.708 90.8174 268.503 92.5822C270.298 94.347 272.721 95.3262 275.238 95.3045C276.233 95.306 277.222 95.1545 278.17 94.8552C278.194 94.9743 278.215 95.0934 278.235 95.2126C278.235 95.2636 278.235 95.3113 278.259 95.3589L278.092 95.5938L278.065 95.5495L273.101 102.493C272.343 103.024 267.971 106.189 267.736 108.562C267.477 111.158 267.219 114.201 267.219 114.201L267.185 114.851C266.968 115.032 266.715 115.164 266.442 115.238C266.17 115.312 265.885 115.327 265.606 115.28C264.058 115.025 264.058 120.985 264.058 120.985C264.058 120.985 263.038 121.934 262.32 121.111C261.602 120.287 259.741 123.074 259.741 123.074L248.007 123.582H247.738L247.106 121.621C247.036 121.419 246.891 121.251 246.701 121.153C246.511 121.055 246.29 121.035 246.085 121.097C246.035 121.111 245.987 121.13 245.942 121.155L245.901 121.182C245.872 121.199 245.845 121.218 245.82 121.24C245.803 121.251 245.789 121.263 245.775 121.277C245.752 121.297 245.731 121.319 245.711 121.342C245.699 121.356 245.687 121.371 245.677 121.386L245.656 121.407C245.583 121.508 245.535 121.624 245.515 121.747C245.495 121.87 245.503 121.996 245.541 122.115L246.085 123.796C243.823 124.252 241.506 125.535 243.394 129.075L233.827 127.309L236.923 129.906L252.913 133.207C252.702 133.588 252.842 134.136 253.502 134.909C256.342 138.251 261.534 139.157 263.62 139.395C264.167 140.624 264.852 141.787 265.661 142.863L265.477 146.192C265.477 146.192 260.197 171.579 259.227 172.869C259.707 172.312 260.144 171.721 260.537 171.099C259.003 176.317 256.859 183.458 256.298 184.527C255.393 186.228 254.556 193.145 255.587 193.59C255.91 193.727 256.805 193.662 258.094 193.563V194.135L258.037 215.833C258.037 215.833 258.295 229.145 257.584 230.411C256.873 231.677 256.683 234.338 256.683 234.338C256.683 234.338 253.832 239.59 251.579 241.7L251.528 241.745L251.457 241.248C251.457 241.248 248.735 244.672 242.754 244.481C242.754 244.481 239.145 246.826 244.496 246.952C249.848 247.078 256.679 246.762 256.679 246.762C256.679 246.762 261.442 239.474 265.446 240.424V245.938H266.671V240.376C267.239 240.002 267.725 239.516 268.099 238.948C268.473 238.379 268.728 237.741 268.849 237.072C268.954 236.383 268.878 235.679 268.628 235.029C268.378 234.379 267.963 233.805 267.423 233.365C267.18 233.145 266.986 232.877 266.851 232.579C266.716 232.28 266.645 231.957 266.641 231.629L266.596 231.667C266.596 231.558 266.569 231.445 266.552 231.326C266.212 228.474 265.766 222.606 267.318 218.256C269.444 212.297 270.09 203.999 268.542 199.053C268.044 197.474 267.635 195.869 267.318 194.244C267.28 194.036 267.243 193.842 267.212 193.659C268.272 193.803 269.321 194.018 270.352 194.302C273.945 195.289 281.794 195.473 288.496 195.422C288.513 195.605 288.533 195.796 288.554 195.99C288.676 197.327 288.929 198.65 289.309 199.938C290.146 202.477 290.534 213.627 290.534 213.627C290.534 213.627 291.619 222.8 291.027 226.537C290.687 228.614 290.401 230.697 290.214 232.79V232.831C290.214 232.831 288.438 237.899 287.152 240.659C287.118 240.73 287.087 240.798 287.053 240.867C286.705 240.898 286.363 240.973 286.033 241.088C286.033 241.088 284.294 244.573 282.552 245.145C280.81 245.717 281.392 247.616 285.325 246.918C289.258 246.22 295.191 245.652 295.191 245.652L295.45 242.102L296.657 240.591L296.351 244.131L297.641 243.879L297.471 239.57L299.447 237.095C299.447 237.095 301.829 234.971 298.287 230.792V230.88C298.25 230.819 298.212 230.758 298.171 230.7V230.68C297.586 229.767 297.117 228.069 297.974 225.053C299.522 219.608 300.424 214.662 300.424 214.662C300.424 214.662 303.884 201.419 299.723 195.149H299.91C299.483 194.267 299.181 193.33 299.012 192.365C298.991 192.249 298.974 192.13 298.954 192.025C302.016 191.848 305.054 191.29 307.514 190.092C307.486 190.054 306.007 158.618 304.782 153.612ZM265.715 131.692V131.754L265.079 131.784L265.715 131.692ZM263.548 131.992C263.443 132.014 263.346 132.061 263.262 132.128C262.991 132.513 262.82 132.96 262.766 133.428L261.779 133.204C261.779 133.204 261.099 133.057 260.078 132.894L259.605 132.421C260.918 132.298 262.265 132.152 263.548 131.992Z" fill="url(#paint0_linear)"/>
<path d="M296.192 239.6L295.814 244.086L297.077 243.831L296.886 238.971L296.192 239.6Z" fill="#1D2366"/>
<path d="M267.407 218.317C265.886 222.65 266.321 228.501 266.662 231.343C266.787 232.395 266.903 233.045 266.903 233.045C266.903 233.045 264.63 238.225 264.44 238.416C264.249 238.606 257.745 242.575 257.745 242.575L253.199 245.226C253.199 245.226 248.59 243.205 250.818 242.503C251.269 242.322 251.675 242.044 252.009 241.69C254.213 239.587 257.006 234.355 257.006 234.355C257.006 234.355 257.193 231.704 257.887 230.441C258.582 229.178 258.33 215.914 258.33 215.914L258.388 194.288V191.47L267.036 191.534C267.092 192.492 267.217 193.444 267.41 194.383C267.722 196.002 268.124 197.602 268.614 199.175C270.118 204.114 269.489 212.378 267.407 218.317Z" fill="#FFB0B1"/>
<path opacity="0.1" d="M266.9 233.045C266.9 233.045 264.627 238.225 264.437 238.416C264.246 238.607 257.745 242.575 257.745 242.575L253.199 245.227C253.199 245.227 248.59 243.205 250.818 242.504C251.269 242.322 251.675 242.044 252.009 241.69L252.206 243.072L253.723 243.007L266.661 231.343C266.784 232.392 266.9 233.045 266.9 233.045Z" fill="black"/>
<path d="M266.743 231.643L253.706 243.392L252.189 243.453L251.876 241.244C251.876 241.244 249.222 244.648 243.35 244.464C243.35 244.464 239.815 246.802 245.051 246.928C250.287 247.054 256.986 246.738 256.986 246.738C256.986 246.738 261.657 239.474 265.569 240.424V245.917H266.77V240.359C267.329 239.983 267.806 239.497 268.172 238.931C268.538 238.366 268.786 237.732 268.9 237.068C269.005 236.384 268.931 235.684 268.687 235.037C268.443 234.389 268.036 233.816 267.505 233.372C267.267 233.151 267.077 232.883 266.946 232.586C266.815 232.289 266.746 231.968 266.743 231.643Z" fill="#1D2366"/>
<path d="M297.393 225.074C296.553 228.079 297.012 229.771 297.583 230.679V230.7C298.327 231.825 298.843 233.084 299.104 234.406L299.159 234.692L293.225 243.344L290.007 244.607C290.007 244.607 284.829 242.841 285.775 242.333C286.013 242.207 286.384 241.554 286.795 240.632C288.064 237.909 289.806 232.851 289.806 232.851V232.807C289.986 230.72 290.279 228.644 290.602 226.575C291.181 222.855 290.119 213.712 290.119 213.712C290.119 213.712 289.741 202.6 288.918 200.071C288.548 198.786 288.301 197.468 288.18 196.136C288.01 194.547 287.972 193.25 287.972 193.25C287.972 193.25 291.374 188.512 297.631 193.628C298.129 194.038 298.567 194.516 298.934 195.047C303.251 201.174 299.778 214.723 299.778 214.723C299.778 214.723 298.907 219.645 297.393 225.074Z" fill="#FFB0B1"/>
<path opacity="0.1" d="M299.159 234.675L293.225 243.327L290.007 244.59C290.007 244.59 284.829 242.823 285.775 242.316C286.013 242.19 286.384 241.537 286.795 240.614C288.986 240.614 290.123 242.684 290.123 242.684L292.899 242.245C292.899 242.245 296.563 235.043 297.383 234.604C298.203 234.165 297.508 231.316 297.508 231.316V230.591L297.573 230.669V230.69C298.321 231.816 298.841 233.079 299.104 234.406L299.159 234.675Z" fill="black"/>
<path d="M290.319 242.885C290.319 242.885 288.741 239.981 285.713 241.053C285.713 241.053 284.012 244.528 282.311 245.097C280.61 245.665 281.174 247.558 285.032 246.863C288.89 246.169 294.691 245.601 294.691 245.601L294.943 242.064L298.855 237.075C298.855 237.075 301.193 234.958 297.719 230.792V231.516C297.719 231.516 298.399 234.358 297.593 234.801C296.787 235.243 293.112 242.442 293.112 242.442L290.319 242.885Z" fill="#1D2366"/>
<path opacity="0.1" d="M267.025 191.538C267.081 192.495 267.206 193.447 267.399 194.387C263.837 193.862 260.534 194.125 258.37 194.291V191.473L267.025 191.538Z" fill="black"/>
<path opacity="0.1" d="M299.284 195.833C299.284 195.833 294.221 196.078 288.193 196.129C288.023 194.54 287.985 193.243 287.985 193.243C287.985 193.243 291.387 188.505 297.644 193.621C298.142 194.032 298.58 194.509 298.947 195.04C299.045 195.31 299.158 195.575 299.284 195.833Z" fill="black"/>
<path d="M299.285 195.265C299.285 195.265 277.126 196.337 270.366 194.444C263.606 192.552 256.921 194.189 255.911 193.747C254.9 193.304 255.724 186.422 256.591 184.717C257.459 183.012 262.337 165.769 262.337 165.769L267.009 141.389L271.935 140.028L272.275 139.932L280.852 137.55L287.142 135.814C287.142 135.814 299.642 184.635 298.567 188.23C298.177 189.609 298.115 191.06 298.386 192.467C298.555 193.437 298.857 194.378 299.285 195.265Z" fill="#1D2366"/>
<path d="M250.74 124.715C250.74 124.715 246.317 129.453 249.665 132.104C253.013 134.755 255.221 132.359 255.221 132.359L250.74 124.715Z" fill="#C7DAF5"/>
<path opacity="0.1" d="M250.74 124.715C250.74 124.715 246.317 129.453 249.665 132.104C253.013 134.755 255.221 132.359 255.221 132.359L250.74 124.715Z" fill="black"/>
<path d="M286.502 93.5175C286.502 93.5175 285.985 94.0076 285.203 94.7394C284.09 95.7775 282.444 97.2989 280.981 98.5753C278.939 100.338 277.289 101.639 277.885 100.526C278.48 99.4126 278.368 97.4997 278.072 95.6992L278.011 95.3419C277.764 94.0196 277.436 92.7136 277.031 91.4311C277.031 91.4311 280.3 87.2038 282.11 85.5361C282.791 84.9132 283.257 84.6477 283.28 85.0834C283.314 85.6756 283.76 86.969 284.301 88.3713C284.322 88.4121 284.339 88.4564 284.356 88.4972C284.723 89.44 285.135 90.4236 285.499 91.2643C286.053 92.5543 286.502 93.5175 286.502 93.5175Z" fill="#FFB0B1"/>
<path opacity="0.1" d="M284.353 88.497C284.045 90.1506 283.299 91.6913 282.194 92.9582C281.088 94.2251 279.662 95.1716 278.065 95.6991C277.815 94.2545 277.467 92.8285 277.024 91.4309C277.024 91.4309 283.179 83.4733 283.274 85.0832C283.332 85.6959 283.788 87.0505 284.353 88.497Z" fill="black"/>
<path opacity="0.1" d="M277.459 97.8263L278.256 96.7065C278.256 96.7065 278.783 99.9264 280.726 98.5071C282.668 97.0877 282.767 109.194 282.767 109.194L280.678 140.365L265.62 139.463L266.045 124.402L267.746 116.822L271.962 105.784L274.486 102.139L277.459 97.8263Z" fill="black"/>
<path d="M282.76 109.385L280.875 137.567L280.678 140.552L272.281 140.052L271.941 140.031L265.61 139.654L266.035 124.589L267.736 117.013L271.951 105.975L274.486 102.326L277.47 98.0172L278.266 96.894C278.266 96.894 278.793 100.117 280.736 98.6945L280.773 98.6673C282.668 97.4488 282.76 109.385 282.76 109.385Z" fill="#1D2366"/>
<path d="M267.972 114.358C267.972 114.358 267.216 115.937 265.699 115.685C264.182 115.433 264.185 121.369 264.185 121.369C264.185 121.369 263.164 122.316 262.484 121.495C261.804 120.675 259.96 123.452 259.96 123.452L248.471 123.959C248.471 123.959 253.574 126.294 252.574 133.37C252.574 133.37 269.924 132.295 270.503 130.648C271.081 129 267.972 114.358 267.972 114.358Z" fill="white"/>
<path opacity="0.03" d="M267.972 114.358C267.972 114.358 267.216 115.937 265.699 115.685C264.182 115.433 264.185 121.369 264.185 121.369C264.185 121.369 263.164 122.316 262.484 121.495C261.804 120.675 259.96 123.452 259.96 123.452L248.471 123.959C248.471 123.959 253.574 126.294 252.574 133.37C252.574 133.37 269.924 132.295 270.503 130.648C271.081 129 267.972 114.358 267.972 114.358Z" fill="black"/>
<path d="M234.576 127.683L237.607 130.273L262.545 135.515L259.449 132.36L234.576 127.683Z" fill="white"/>
<path d="M277.504 98.8204C277.093 99.4399 275.909 102.694 274.915 105.522C274.092 107.877 273.401 109.947 273.401 109.947C273.401 109.947 271.792 120.433 270.972 122.326C270.152 124.218 270.595 131.618 270.595 131.618L267.533 149.871C267.533 149.871 266.145 159.282 264.001 164.901C261.899 170.419 259.517 173.016 259.453 173.094C260.402 171.811 265.576 146.508 265.576 146.508L267.278 114.61C267.278 114.61 267.529 111.581 267.784 108.99C268.04 106.4 273.15 102.864 273.15 102.864L278.089 95.8354C278.596 96.5264 278.263 97.6836 277.504 98.8204Z" fill="white"/>
<path d="M264.62 139.81C264.62 139.81 257.36 139.497 253.825 135.263C250.29 131.028 261.97 133.561 261.97 133.561L264.998 134.241L264.62 139.81Z" fill="#FFB0B1"/>
<path opacity="0.1" d="M298.591 188.254C298.201 189.633 298.139 191.084 298.41 192.491C290.477 193.056 281.988 190.905 281.988 190.905C280.41 192.358 276.242 194.506 276.242 194.506L273.97 166.334C272.52 162.543 271.952 142.649 271.952 142.649C271.952 142.649 272.081 141.607 272.292 140.048C272.292 140.011 272.292 139.97 272.309 139.933C272.878 135.576 274.01 127.397 274.548 126.291C275.307 124.776 272.214 120.736 272.214 120.736L273.619 108.728L273.789 107.282C276.759 105.954 279.032 101.724 279.032 101.724L280.774 98.6606C282.676 97.4421 282.767 109.379 282.767 109.379L280.883 137.56L287.173 135.825C287.173 135.825 299.662 184.653 298.591 188.254Z" fill="black"/>
<path d="M306.735 190.211C298.087 194.506 282.365 190.527 282.365 190.527C280.787 191.98 276.619 194.128 276.619 194.128L274.347 165.956C272.897 162.168 272.329 142.274 272.329 142.274C272.329 142.274 274.159 127.431 274.915 125.916C275.136 125.474 275.03 124.817 274.768 124.109C273.478 120.735 273.003 117.103 273.384 113.51L273.989 108.354L274.159 106.907C277.126 105.58 279.399 101.346 279.399 101.346L280.981 98.5752L283.893 93.4698L285.271 91.0532L285.502 91.2642L287.292 92.8844C287.292 92.8844 288.05 93.5106 289.187 94.4738C291.663 96.5603 295.943 100.236 298.148 102.483C300.09 104.467 300.703 112.169 300.87 117.969C300.989 121.784 300.917 124.776 300.917 124.776C298.958 127.996 304.071 153.894 304.071 153.894C305.282 158.884 306.735 190.211 306.735 190.211Z" fill="white"/>
<path opacity="0.03" d="M290.136 101.284C290.136 101.284 284.199 112.591 284.897 116.883C285.594 121.175 287.547 126.042 286.598 127.179C286.273 127.609 285.853 127.959 285.371 128.2C284.889 128.441 284.357 128.567 283.818 128.568C282.872 128.632 280.344 130.399 280.344 130.589C280.344 130.78 278.011 130.78 275.922 131.665C273.833 132.55 270.744 133.054 270.744 133.054C270.744 133.054 264.746 132.863 264.178 133.431C263.609 134 263.041 137.41 264.242 140.126C265.443 142.842 266.767 144.864 267.777 145.232C268.788 145.599 275.163 143.465 280.338 142.958C285.512 142.451 291.156 138.36 291.156 138.36C291.156 138.36 297.341 136.148 298.417 132.421C299.492 128.694 297.09 108.231 297.09 108.231C297.09 108.231 295.239 98.6942 290.136 101.284Z" fill="black"/>
<path opacity="0.03" d="M289.374 100.338C289.374 100.338 283.441 111.642 284.135 115.937C284.829 120.232 286.785 125.096 285.836 126.233C285.511 126.663 285.091 127.013 284.609 127.254C284.127 127.495 283.595 127.621 283.056 127.622C282.111 127.686 279.586 129.453 279.586 129.643C279.586 129.834 277.249 129.831 275.163 130.716C273.078 131.6 269.985 132.104 269.985 132.104C269.985 132.104 263.987 131.917 263.419 132.485C262.851 133.054 262.283 136.464 263.484 139.18C264.685 141.896 266.008 143.918 267.019 144.286C268.029 144.653 274.405 142.516 279.583 142.012C284.761 141.508 290.385 137.404 290.385 137.404C290.385 137.404 296.57 135.195 297.645 131.468C298.72 127.741 296.318 107.278 296.318 107.278C296.318 107.278 294.488 97.7482 289.374 100.338Z" fill="black"/>
<path d="M289.942 100.716C289.942 100.716 284.012 112.023 284.692 116.301C285.373 120.579 287.343 125.46 286.394 126.597C286.069 127.028 285.65 127.378 285.167 127.619C284.685 127.86 284.153 127.985 283.614 127.986C282.668 128.05 280.144 129.817 280.144 130.007C280.144 130.198 277.807 130.198 275.721 131.083C273.636 131.968 270.543 132.472 270.543 132.472C270.543 132.472 264.545 132.281 263.977 132.849C263.409 133.418 262.841 136.828 264.042 139.544C265.243 142.26 266.566 144.282 267.576 144.65C268.587 145.017 274.962 142.883 280.14 142.376C285.318 141.869 290.935 137.768 290.935 137.768C290.935 137.768 297.12 135.555 298.195 131.828C299.271 128.101 296.869 107.639 296.869 107.639C296.869 107.639 295.055 98.1258 289.942 100.716Z" fill="white"/>
<path opacity="0.1" d="M289.816 131.032C289.816 131.032 285.081 130.086 286.724 131.665C288.367 133.244 288.364 134.633 290.385 134.568C292.405 134.504 289.816 131.032 289.816 131.032Z" fill="black"/>
<path opacity="0.1" d="M297.834 165.075C297.834 165.075 295.688 166.528 299.79 169.874C303.893 173.22 297.834 165.075 297.834 165.075Z" fill="black"/>
<path opacity="0.1" d="M293.729 177.011C293.729 177.202 292.974 183.958 295.815 185.663C298.655 187.368 293.729 177.011 293.729 177.011Z" fill="black"/>
<path d="M248.654 123.953C246.368 124.031 241.418 124.732 243.983 129.518C246.252 133.752 250.063 130.923 252.196 128.772C251.675 126.771 250.408 125.046 248.654 123.953Z" fill="#FFB0B1"/>
<path d="M252.232 128.734C252.266 128.704 252.297 128.67 252.328 128.639C252.297 128.67 252.266 128.704 252.232 128.734Z" fill="#FFB0B1"/>
<path opacity="0.1" d="M289.187 94.661C286.757 96.3219 284.72 97.7242 284.325 98.0169C283.233 98.8202 281.151 103.558 279.824 105.975C278.756 107.921 275.296 108.422 273.989 108.544L274.146 107.111C277.112 105.787 279.385 101.553 279.385 101.553L285.257 91.2607L287.278 93.0919C287.278 93.0919 288.05 93.7011 289.187 94.661Z" fill="black"/>
<path d="M289.187 94.4738C286.757 96.1314 284.72 97.5371 284.325 97.8264C283.233 98.6331 281.151 103.367 279.824 105.784C278.756 107.731 275.296 108.231 273.989 108.354L274.159 106.907C277.126 105.58 279.399 101.346 279.399 101.346L285.271 91.0532L287.292 92.8844C287.292 92.8844 288.05 93.497 289.187 94.4738Z" fill="#DCE7FF"/>
<path d="M284.512 86.4107C284.514 87.0698 284.445 87.7271 284.305 88.3712C284.052 89.5746 283.561 90.7155 282.862 91.7271C281.591 93.5761 279.7 94.9082 277.532 95.4815C275.363 96.0549 273.061 95.8316 271.043 94.8522C269.025 93.8727 267.425 92.202 266.533 90.1433C265.641 88.0845 265.516 85.774 266.181 83.631C266.847 81.488 268.258 79.6546 270.158 78.4633C272.059 77.2721 274.324 76.8019 276.541 77.1382C278.759 77.4745 280.782 78.5949 282.245 80.2961C283.707 81.9974 284.512 84.1668 284.512 86.4107Z" fill="#FFB0B1"/>
<path opacity="0.1" d="M300.879 117.969C299.595 117.178 298.55 116.054 297.855 114.715C297.328 113.67 296.977 112.469 296.072 111.723C295.263 111.063 294.167 110.9 293.163 110.604C289.84 109.62 287.04 106.581 286.944 103.116C286.897 101.485 287.404 99.855 287.172 98.2417C287.042 97.3262 286.677 96.4598 286.114 95.7265C285.839 95.373 285.534 95.0439 285.202 94.7428C284.76 94.3242 284.294 93.9192 283.893 93.4733C283.632 93.1996 283.404 92.897 283.212 92.5713C283.062 92.3044 282.94 92.0226 282.848 91.7306C282.229 89.7974 282.79 87.4965 282.096 85.5395C282.096 85.5054 282.073 85.468 282.059 85.434C281.794 84.7362 281.259 84.0419 280.521 83.9874C279.783 83.933 279.14 84.549 278.432 84.8281C276.949 85.4033 275.347 84.4231 274.112 83.4224C272.877 82.4218 271.482 81.2782 269.907 81.5028C268.869 81.6492 268.046 82.3605 267.09 82.7281C266.868 82.8091 266.641 82.8729 266.409 82.9187C267.221 80.8978 268.711 79.2227 270.623 78.1808C272.535 77.1389 274.75 76.7952 276.888 77.2086C279.026 77.622 280.953 78.7667 282.339 80.4464C283.725 82.1261 284.484 84.236 284.485 86.4142C284.487 87.0733 284.417 87.7307 284.277 88.3747C284.298 88.4155 284.315 88.4598 284.332 88.5006C284.699 89.4434 285.111 90.4271 285.475 91.2677L287.264 92.8879C287.264 92.8879 288.023 93.5141 289.159 94.4773C291.636 96.5638 295.916 100.24 298.12 102.486C300.09 104.467 300.703 112.169 300.879 117.969Z" fill="black"/>
<path d="M267.002 76.9523C267.454 76.0299 267.682 74.9986 268.22 74.1273C269.012 72.8509 270.4 72.0511 271.819 71.561C275.534 70.2812 283.386 68.4194 285.73 71.561C286.193 72.1838 286.574 72.8986 287.214 73.3376C287.731 73.6193 288.269 73.8605 288.823 74.0592C290.32 74.7638 291.276 76.292 291.786 77.8644C292.296 79.4369 292.446 81.1047 292.807 82.718C293.283 84.7806 294.123 86.7376 294.957 88.6845C295.94 90.9819 296.998 93.3611 298.883 94.988C301.472 97.2037 302.054 100.338 304.445 102.765C307.293 105.651 307.201 110.413 305.735 114.191C305.492 114.669 305.375 115.201 305.395 115.736C305.532 116.283 305.824 116.779 306.235 117.166L307.79 118.922C305.933 119.323 303.995 119.108 302.271 118.31C300.547 117.511 299.13 116.173 298.233 114.497C297.702 113.453 297.352 112.251 296.447 111.509C295.637 110.845 294.545 110.685 293.538 110.386C290.214 109.402 287.414 106.363 287.319 102.898C287.271 101.271 287.778 99.6373 287.55 98.024C287.414 97.1201 287.051 96.2654 286.496 95.5394C285.621 94.4026 284.312 93.63 283.604 92.3842C282.406 90.2706 283.315 87.5205 282.451 85.2367C282.185 84.5559 281.655 83.8446 280.913 83.7901C280.171 83.7357 279.532 84.3551 278.824 84.6308C277.341 85.206 275.742 84.2258 274.507 83.2251C273.272 82.2245 271.873 81.0843 270.302 81.3089C269.261 81.4552 268.441 82.1632 267.481 82.5308C266.774 82.8031 265.338 83.0481 264.715 82.4491C263.412 81.1966 266.444 78.0721 267.002 76.9523Z" fill="#591D4B"/>
<path opacity="0.1" d="M299.117 113.452C298.59 112.408 298.24 111.206 297.335 110.461C296.525 109.797 295.43 109.637 294.426 109.341C291.102 108.357 288.302 105.318 288.207 101.853C288.156 100.223 288.666 98.5923 288.435 96.979C288.304 96.0634 287.94 95.1971 287.377 94.4637C286.506 93.3269 285.193 92.5509 284.488 91.3052C283.287 89.1915 284.199 86.4414 283.335 84.1576C283.07 83.4769 282.539 82.7655 281.797 82.7111C281.056 82.6566 280.416 83.2726 279.708 83.5483C278.225 84.127 276.623 83.1467 275.391 82.1461C274.16 81.1454 272.758 80.0052 271.183 80.2264C270.162 80.3728 269.325 81.0807 268.366 81.4517C267.658 81.724 266.222 81.9691 265.6 81.37C264.297 80.1107 267.328 76.9862 267.876 75.8698C268.328 74.9474 268.556 73.9161 269.094 73.0448L269.186 72.9019C268.786 73.2408 268.441 73.6405 268.165 74.0863C267.621 74.9576 267.396 75.9889 266.947 76.9113C266.399 78.0311 263.368 81.1556 264.671 82.4115C265.29 83.0106 266.712 82.7519 267.437 82.4932C268.393 82.1256 269.213 81.4177 270.254 81.2679C271.826 81.0467 273.224 82.1869 274.459 83.1876C275.694 84.1882 277.296 85.1685 278.776 84.5932C279.487 84.3176 280.106 83.6947 280.865 83.7526C281.624 83.8104 282.141 84.5013 282.406 85.1991C283.27 87.4693 282.359 90.2194 283.556 92.3467C284.264 93.589 285.577 94.365 286.448 95.5018C287.011 96.2352 287.376 97.1015 287.506 98.0171C287.737 99.6304 287.227 101.261 287.278 102.891C287.384 106.359 290.173 109.399 293.497 110.379C294.501 110.675 295.596 110.835 296.406 111.502C297.311 112.244 297.658 113.446 298.189 114.491C299.085 116.166 300.503 117.505 302.227 118.303C303.951 119.101 305.888 119.316 307.745 118.915L307.014 118.085C303.802 118.139 300.574 116.322 299.117 113.452Z" fill="black"/>
<path opacity="0.1" d="M277.317 99.0108C276.902 99.6303 275.718 102.884 274.728 105.709C273.802 105.352 272.958 103.051 272.958 103.051L277.888 96.0225C278.405 96.7168 278.072 97.874 277.317 99.0108Z" fill="black"/>
<path d="M277.504 98.8204C277.092 99.4399 275.908 102.694 274.915 105.522C273.989 105.165 273.149 102.864 273.149 102.864L278.089 95.8354C278.596 96.5264 278.262 97.6836 277.504 98.8204Z" fill="#DCE7FF"/>
<path d="M248.787 131.141L246.048 122.513C246.015 122.411 246.003 122.305 246.011 122.198C246.02 122.092 246.049 121.988 246.098 121.894C246.147 121.799 246.214 121.714 246.295 121.645C246.376 121.577 246.471 121.524 246.572 121.492C246.673 121.458 246.781 121.445 246.887 121.453C246.994 121.461 247.097 121.491 247.193 121.539C247.288 121.588 247.372 121.655 247.441 121.737C247.509 121.819 247.561 121.914 247.593 122.016L250.331 130.651L250.059 132.458L248.787 131.141Z" fill="#BE8B87"/>
<path opacity="0.1" d="M246.307 121.747C246.409 121.714 246.516 121.702 246.622 121.71C246.728 121.719 246.832 121.749 246.927 121.798C247.022 121.847 247.106 121.914 247.175 121.996C247.244 122.078 247.295 122.172 247.328 122.274L250.066 130.902L249.859 132.264L250.059 132.472L250.332 130.664L247.593 122.036C247.561 121.934 247.51 121.839 247.441 121.757C247.372 121.675 247.288 121.608 247.193 121.559C247.098 121.511 246.994 121.481 246.887 121.473C246.781 121.465 246.674 121.478 246.572 121.512C246.402 121.565 246.254 121.674 246.154 121.822C246.202 121.791 246.253 121.766 246.307 121.747Z" fill="white"/>
<path d="M248.787 131.141L250.325 130.651L250.1 132.135L250.053 132.458L249.604 131.989L248.787 131.141Z" fill="#EFC8C4"/>
<path d="M249.603 131.989C249.631 131.956 249.664 131.928 249.702 131.907C249.724 131.893 249.749 131.886 249.775 131.886C249.801 131.886 249.826 131.893 249.848 131.907C249.87 131.932 249.889 131.961 249.902 131.992C249.923 132.028 249.951 132.058 249.986 132.081C250.02 132.104 250.059 132.119 250.1 132.125L250.052 132.465L249.603 131.989Z" fill="#727A9C"/>
<path d="M246.035 125.569C246.035 125.569 251.529 125.539 250.233 127.874C248.937 130.208 246.919 130.494 246.919 130.494L246.035 125.569Z" fill="#FFB0B1"/>
</g>
<defs>
<linearGradient id="paint0_linear" x1="271.186" y1="247.054" x2="271.186" y2="69.2635" gradientUnits="userSpaceOnUse">
<stop stop-color="#808080" stop-opacity="0.25"/>
<stop offset="0.54" stop-color="#808080" stop-opacity="0.12"/>
<stop offset="1" stop-color="#808080" stop-opacity="0.1"/>
</linearGradient>
<clipPath id="clip0">
<rect width="336" height="268" fill="white"/>
</clipPath>
</defs>
</svg>
