<svg width="26" height="28" viewBox="0 0 26 28" fill="none" xmlns="http://www.w3.org/2000/svg">
<path opacity="1" d="M24.0397 24.9872L24.103 25.2193L24.2895 25.3713C24.4179 25.4759 24.5 25.6378 24.5 25.8125V26.6875C24.5 27.0006 24.2506 27.25 23.9375 27.25H6C3.51578 27.25 1.5 25.2342 1.5 22.75V5.25C1.5 2.76578 3.51578 0.75 6 0.75H23.9375C24.2506 0.75 24.5 0.99937 24.5 1.3125V19.6875C24.5 19.8637 24.4171 20.0216 24.2961 20.118L24.1042 20.2707L24.0397 20.5073C23.8961 21.034 23.841 21.9336 23.841 22.7473C23.841 23.5609 23.8961 24.4605 24.0397 24.9872ZM21.6078 25.25H22.4458L22.3532 24.4172C22.2554 23.5371 22.2554 21.9629 22.3532 21.0828L22.4458 20.25H21.6078H6C4.62329 20.25 3.5 21.3733 3.5 22.75C3.5 24.1322 4.61782 25.25 6 25.25H21.6078ZM8.07812 6.25C7.48344 6.25 7 6.73344 7 7.32812V8.42188C7 9.01656 7.48344 9.5 8.07812 9.5H19.6719C20.2666 9.5 20.75 9.01656 20.75 8.42188V7.32812C20.75 6.73344 20.2666 6.25 19.6719 6.25H8.07812ZM8.07812 9.75C7.48344 9.75 7 10.2334 7 10.8281V11.9219C7 12.5166 7.48344 13 8.07812 13H19.6719C20.2666 13 20.75 12.5166 20.75 11.9219V10.8281C20.75 10.2334 20.2666 9.75 19.6719 9.75H8.07812Z" stroke="#FFFFFF" stroke-width="1.5"/>
</svg>
